<svg width="131" height="29" viewBox="0 0 131 29" fill="none" xmlns="http://www.w3.org/2000/svg">
<path d="M0.716492 10.6462H12.5788H19.7894V3.50031L0.716492 10.6462Z" fill="#FF9D28"/>
<path d="M19.7914 3.50431V28.7307L28.8014 0.129913L19.7914 3.50431Z" fill="#68C5ED"/>
<path d="M19.7902 10.6503H12.5796L19.7902 28.7307V10.6503Z" fill="#044D80"/>
<path d="M0.716492 10.6461L14.4257 15.2892L12.5745 10.6504H0.716492V10.6461Z" fill="#E54747"/>
<path d="M44.4116 22.0899C44.308 22.1934 44.1311 22.3229 43.8895 22.4826C43.6435 22.6379 43.3285 22.7976 42.9358 22.9529C42.5431 23.1083 42.0642 23.2463 41.4989 23.3585C40.9336 23.4707 40.282 23.5268 39.5527 23.5268C38.1417 23.5268 36.9248 23.2981 35.8935 22.8493C34.8665 22.3963 34.0164 21.7662 33.3476 20.955C32.6787 20.1437 32.1868 19.1858 31.8718 18.0811C31.5568 16.9764 31.4014 15.7596 31.4014 14.4348C31.4014 13.1101 31.5697 11.8889 31.9106 10.7626C32.2515 9.6407 32.7607 8.6698 33.4382 7.8499C34.1157 7.03 34.9657 6.3914 35.9841 5.9297C37.0025 5.4679 38.2021 5.2392 39.5743 5.2392C40.2518 5.2392 40.8689 5.2997 41.4169 5.4205C41.9649 5.5413 42.4439 5.688 42.8538 5.852C43.2638 6.016 43.6003 6.1929 43.8722 6.3741C44.1397 6.5554 44.3469 6.7107 44.4849 6.8315C44.6403 6.9696 44.7741 7.1379 44.8906 7.3278C45.0028 7.5176 45.0589 7.72909 45.0589 7.9535C45.0589 8.30299 44.9294 8.6482 44.6662 8.9977C44.403 9.3473 44.1182 9.66659 43.8032 9.96429C43.596 9.75719 43.3587 9.5414 43.0998 9.3257C42.8366 9.10989 42.5474 8.9157 42.2238 8.7518C41.9002 8.5878 41.5377 8.44539 41.1278 8.33319C40.7178 8.22099 40.2604 8.1649 39.7555 8.1649C38.8666 8.1649 38.1244 8.3418 37.5203 8.7C36.9205 9.0581 36.4372 9.52419 36.0704 10.0981C35.7036 10.672 35.4447 11.3322 35.2851 12.0701C35.1297 12.8123 35.052 13.5632 35.052 14.3312C35.052 15.1511 35.1297 15.9322 35.2851 16.683C35.4404 17.4338 35.7123 18.0941 36.0963 18.668C36.4804 19.2419 36.9809 19.7036 37.598 20.0531C38.215 20.4027 38.9875 20.5753 39.9109 20.5753C40.3985 20.5753 40.8473 20.5148 41.2572 20.394C41.6672 20.2732 42.0296 20.1265 42.3403 19.9496C42.6553 19.777 42.9272 19.5914 43.1645 19.4015C43.3975 19.2117 43.596 19.0434 43.7514 18.9053C43.8549 19.0261 43.9758 19.1772 44.1182 19.3498C44.2606 19.5267 44.39 19.7079 44.5108 19.8978C44.6317 20.0877 44.7352 20.2818 44.8258 20.4717C44.9121 20.6659 44.9553 20.8385 44.9553 20.9938C44.9553 21.2225 44.9121 21.4124 44.8258 21.5677C44.7395 21.7231 44.5971 21.9 44.4073 22.0899H44.4116ZM57.8748 20.0877C57.8748 21.4728 58.0777 22.4782 58.479 23.1083C58.164 23.2291 57.8705 23.3197 57.5987 23.3715C57.3268 23.4233 57.042 23.4491 56.7443 23.4491C56.1143 23.4491 55.6353 23.3283 55.3116 23.0824C54.988 22.8364 54.7809 22.4869 54.6946 22.0295C54.3105 22.4351 53.8013 22.776 53.1713 23.0565C52.5413 23.337 51.7689 23.475 50.8584 23.475C50.3838 23.475 49.9134 23.4103 49.4387 23.2765C48.9641 23.1471 48.5369 22.9313 48.1485 22.6336C47.7645 22.3358 47.4495 21.9389 47.2035 21.4426C46.9575 20.9464 46.8367 20.3379 46.8367 19.6216C46.8367 18.7327 47.0525 18.0034 47.4797 17.4468C47.9112 16.8858 48.4462 16.4457 49.0978 16.122C49.7451 15.7984 50.4485 15.5783 51.1993 15.4532C51.9545 15.3324 52.6449 15.2547 53.2749 15.2159C53.4863 15.1986 53.6891 15.19 53.892 15.19H54.4572V14.711C54.4572 14.0378 54.276 13.5588 53.9179 13.274C53.5597 12.9892 52.9772 12.8468 52.1702 12.8468C51.4151 12.8468 50.7462 12.9677 50.1594 13.2136C49.5725 13.4596 48.9986 13.7401 48.4376 14.0551C48.1917 13.7573 47.9932 13.4294 47.8464 13.0712C47.6997 12.7131 47.6221 12.4455 47.6221 12.2686C47.6221 12.0226 47.7558 11.7853 48.0277 11.5609C48.2995 11.3322 48.6706 11.1294 49.1453 10.9439C49.62 10.7583 50.1594 10.6116 50.7764 10.4951C51.3892 10.3829 52.0365 10.3225 52.7226 10.3225C53.6676 10.3225 54.4702 10.4174 55.1261 10.6116C55.782 10.8058 56.3171 11.1035 56.727 11.5048C57.137 11.9105 57.4304 12.411 57.6073 13.0151C57.7842 13.6193 57.8705 14.3269 57.8705 15.1296V20.0704L57.8748 20.0877ZM54.509 17.0368H54.1422C54.0171 17.0368 53.8963 17.0455 53.7755 17.0627C53.3353 17.0973 52.9038 17.149 52.4723 17.2224C52.0408 17.2914 51.661 17.4166 51.3288 17.5892C50.9965 17.7661 50.7246 17.9905 50.5132 18.271C50.3018 18.5515 50.1982 18.9096 50.1982 19.3498C50.1982 19.8417 50.3406 20.2559 50.6168 20.5968C50.8972 20.9377 51.3719 21.1103 52.0364 21.1103C52.3687 21.1103 52.6837 21.0672 52.9815 20.9809C53.2792 20.8946 53.5424 20.7781 53.7711 20.64C53.9998 20.4976 54.1768 20.3466 54.3105 20.1783C54.44 20.0143 54.509 19.859 54.509 19.7166V17.0368ZM64.4166 11.8587C64.6971 11.5264 65.1329 11.1898 65.7284 10.8489C66.3239 10.508 67.075 10.3354 67.981 10.3354C68.628 10.3354 69.241 10.4433 69.828 10.6634C70.41 10.8834 70.932 11.2373 71.386 11.7292C71.839 12.2211 72.201 12.8684 72.473 13.6754C72.745 14.4823 72.879 15.4704 72.879 16.6442C72.879 18.0121 72.723 19.1383 72.408 20.0229C72.093 20.9075 71.688 21.6109 71.191 22.1244C70.695 22.6422 70.138 23.0047 69.526 23.2161C68.913 23.4276 68.305 23.5311 67.692 23.5311C67.187 23.5311 66.7425 23.475 66.367 23.3585C65.9916 23.2463 65.6723 23.1169 65.4091 22.9788C65.1459 22.8407 64.9474 22.6983 64.805 22.5602C64.6669 22.4221 64.5763 22.3229 64.5417 22.2711V28.7309H60.9688V10.7065C61.0551 10.6893 61.163 10.672 61.2881 10.6547C61.396 10.6375 61.5168 10.6245 61.6592 10.6159C61.8016 10.6073 61.9699 10.603 62.1598 10.603C62.7423 10.603 63.2386 10.6979 63.6442 10.8921C64.0498 11.0863 64.3087 11.4099 64.4123 11.863L64.4166 11.8587ZM69.146 16.7218C69.146 16.1954 69.103 15.7078 69.017 15.2504C68.93 14.793 68.784 14.4003 68.585 14.068C68.387 13.7358 68.115 13.4769 67.774 13.2913C67.433 13.1058 67.019 13.0151 66.531 13.0151C65.7974 13.0151 65.2883 13.1575 65.0035 13.4337C64.7187 13.7142 64.5719 14.0206 64.5719 14.3528V19.9237C64.71 20.0661 64.9603 20.2301 65.3185 20.4242C65.6766 20.6184 66.0909 20.7133 66.5612 20.7133C67.45 20.7133 68.102 20.3638 68.52 19.6605C68.939 18.9614 69.146 17.9775 69.146 16.7175V16.7218ZM75.636 21.2441C75.511 20.8946 75.433 20.5278 75.399 20.1394C75.364 19.7554 75.347 19.367 75.347 18.983V6.78839C75.468 6.77109 75.601 6.7539 75.74 6.7366C75.86 6.7193 75.994 6.7064 76.132 6.6978C76.27 6.6891 76.413 6.6848 76.551 6.6848C76.831 6.6848 77.112 6.7107 77.392 6.7625C77.673 6.8143 77.927 6.9221 78.156 7.0775C78.385 7.2372 78.566 7.4486 78.708 7.7205C78.851 7.9923 78.92 8.3461 78.92 8.7863V10.6504H82.601V13.3042H78.92V18.9096C78.92 20.1308 79.42 20.7436 80.417 20.7436C80.663 20.7436 80.896 20.7047 81.112 20.627C81.332 20.5494 81.526 20.4631 81.703 20.3638C81.88 20.2689 82.031 20.1653 82.165 20.0618C82.294 19.9582 82.389 19.8762 82.441 19.8244C82.704 20.2085 82.907 20.5451 83.045 20.8255C83.183 21.106 83.257 21.3736 83.257 21.6195C83.257 21.8482 83.166 22.0769 82.98 22.297C82.795 22.5171 82.536 22.7199 82.204 22.9054C81.871 23.091 81.466 23.242 80.995 23.3542C80.521 23.4707 80.007 23.5268 79.446 23.5268C78.359 23.5268 77.513 23.3154 76.909 22.8968C76.305 22.4782 75.878 21.9259 75.636 21.2398V21.2441ZM91.654 20.9032C92.094 20.9032 92.478 20.8557 92.815 20.7608C93.147 20.6659 93.449 20.5451 93.712 20.407C93.975 20.2689 94.204 20.1135 94.398 19.9453C94.592 19.777 94.769 19.6259 94.925 19.4835C95.136 19.7468 95.356 20.0833 95.585 20.4933C95.814 20.9075 95.926 21.2441 95.926 21.5073C95.926 21.8914 95.706 22.2452 95.27 22.5602C94.903 22.8407 94.381 23.0824 93.708 23.2852C93.035 23.488 92.241 23.5872 91.33 23.5872C90.506 23.5872 89.695 23.4837 88.901 23.2722C88.102 23.0608 87.395 22.694 86.773 22.1675C86.152 21.6411 85.647 20.9377 85.263 20.0531C84.879 19.1685 84.685 18.0509 84.685 16.7003C84.685 15.5956 84.857 14.6463 85.198 13.848C85.539 13.0497 85.997 12.3894 86.566 11.863C87.136 11.3365 87.779 10.9525 88.499 10.7065C89.216 10.4606 89.954 10.3397 90.709 10.3397C91.688 10.3397 92.521 10.4951 93.207 10.8015C93.889 11.1078 94.446 11.5221 94.877 12.0356C95.304 12.5534 95.615 13.1446 95.809 13.8091C96.003 14.4737 96.098 15.177 96.098 15.9106V16.2774C96.098 16.4198 96.094 16.5665 96.085 16.7262C96.077 16.8858 96.068 17.0368 96.06 17.1879C96.051 17.3389 96.038 17.4554 96.021 17.5417H88.266C88.335 18.504 88.638 19.3066 89.164 19.9453C89.69 20.5839 90.528 20.9032 91.671 20.9032H91.654ZM92.853 15.5697C92.853 14.7282 92.689 14.0465 92.366 13.52C92.038 12.9936 91.455 12.7303 90.61 12.7303C89.889 12.7303 89.311 12.9806 88.879 13.4812C88.448 13.9817 88.232 14.6765 88.232 15.5697H92.858H92.853ZM102.308 11.932C102.411 11.7767 102.554 11.5998 102.726 11.4099C102.903 11.22 103.115 11.0431 103.369 10.8878C103.624 10.7324 103.904 10.5986 104.211 10.4951C104.517 10.3915 104.845 10.3397 105.195 10.3397C105.406 10.3397 105.626 10.357 105.864 10.3915C106.101 10.426 106.321 10.4908 106.519 10.5857C106.722 10.6806 106.882 10.8101 107.007 10.9784C107.128 11.1424 107.193 11.3495 107.193 11.5911C107.193 11.9752 107.098 12.411 106.904 12.9073C106.709 13.4035 106.519 13.8264 106.325 14.1759C106.028 13.9299 105.73 13.7444 105.432 13.6106C105.134 13.4812 104.785 13.4121 104.379 13.4121C103.835 13.4121 103.382 13.5718 103.011 13.8868C102.644 14.2018 102.459 14.5815 102.459 15.0217V23.5311H98.886V10.7065C98.972 10.6893 99.08 10.672 99.201 10.6547C99.305 10.6375 99.43 10.6245 99.568 10.6159C99.706 10.6073 99.874 10.603 100.068 10.603C100.629 10.603 101.117 10.7108 101.527 10.9266C101.937 11.1424 102.196 11.4789 102.304 11.9277L102.308 11.932ZM112.47 11.932C112.574 11.7767 112.716 11.5998 112.889 11.4099C113.066 11.22 113.277 11.0431 113.532 10.8878C113.786 10.7324 114.067 10.5986 114.373 10.4951C114.679 10.3915 115.007 10.3397 115.357 10.3397C115.568 10.3397 115.788 10.357 116.026 10.3915C116.263 10.426 116.483 10.4908 116.682 10.5857C116.884 10.6806 117.044 10.8101 117.169 10.9784C117.29 11.1424 117.355 11.3495 117.355 11.5911C117.355 11.9752 117.26 12.411 117.066 12.9073C116.871 13.4035 116.682 13.8264 116.487 14.1759C116.19 13.9299 115.892 13.7444 115.594 13.6106C115.296 13.4812 114.947 13.4121 114.541 13.4121C113.998 13.4121 113.545 13.5718 113.173 13.8868C112.807 14.2018 112.621 14.5815 112.621 15.0217V23.5311H109.048V10.7065C109.134 10.6893 109.242 10.672 109.363 10.6547C109.467 10.6375 109.592 10.6245 109.73 10.6159C109.868 10.6073 110.036 10.603 110.23 10.603C110.791 10.603 111.279 10.7108 111.689 10.9266C112.099 11.1424 112.358 11.4789 112.466 11.9277L112.47 11.932ZM129.528 20.092C129.528 21.4771 129.731 22.4826 130.132 23.1126C129.817 23.2334 129.523 23.324 129.252 23.3758C128.98 23.4276 128.695 23.4535 128.397 23.4535C127.767 23.4535 127.288 23.3326 126.965 23.0867C126.641 22.8407 126.434 22.4912 126.348 22.0338C125.964 22.4394 125.454 22.7803 124.824 23.0608C124.194 23.3413 123.422 23.4794 122.511 23.4794C122.037 23.4794 121.566 23.4146 121.092 23.2809C120.617 23.1514 120.19 22.9356 119.806 22.6379C119.422 22.3402 119.107 21.9432 118.861 21.4469C118.615 20.9507 118.494 20.3422 118.494 19.6259C118.494 18.737 118.71 18.0078 119.137 17.4511C119.564 16.8901 120.104 16.45 120.755 16.1263C121.402 15.8027 122.106 15.5826 122.857 15.4575C123.612 15.3367 124.302 15.259 124.932 15.2202C125.144 15.2029 125.346 15.1943 125.549 15.1943H126.115V14.7153C126.115 14.0421 125.933 13.5632 125.575 13.2784C125.217 12.9936 124.634 12.8512 123.827 12.8512C123.072 12.8512 122.404 12.972 121.817 13.2179C121.23 13.4639 120.656 13.7444 120.095 14.0594C119.849 13.7617 119.65 13.4337 119.504 13.0755C119.357 12.7174 119.279 12.4498 119.279 12.2729C119.279 12.027 119.413 11.7896 119.685 11.5652C119.957 11.3365 120.328 11.1337 120.803 10.9482C121.277 10.7626 121.817 10.6159 122.434 10.4994C123.046 10.3872 123.694 10.3268 124.38 10.3268C125.325 10.3268 126.127 10.4217 126.783 10.6159C127.439 10.8101 127.974 11.1078 128.384 11.5091C128.794 11.9148 129.088 12.4153 129.265 13.0194C129.442 13.6236 129.528 14.3312 129.528 15.1339V20.0747V20.092ZM126.162 17.0412H125.795C125.67 17.0412 125.549 17.0498 125.428 17.0671C124.988 17.1016 124.557 17.1534 124.125 17.2267C123.694 17.2958 123.314 17.4209 122.982 17.5935C122.649 17.7704 122.378 17.9948 122.166 18.2753C121.955 18.5558 121.851 18.9139 121.851 19.3541C121.851 19.846 121.994 20.2603 122.27 20.6012C122.546 20.942 123.025 21.1147 123.689 21.1147C124.022 21.1147 124.337 21.0715 124.634 20.9852C124.932 20.8989 125.195 20.7824 125.424 20.6443C125.653 20.5019 125.83 20.3509 125.964 20.1826C126.093 20.0186 126.162 19.8633 126.162 19.7209V17.0412Z" fill="#044D80"/>
</svg>
