<svg width="179" height="21" viewBox="0 0 179 21" fill="none" xmlns="http://www.w3.org/2000/svg">
<path fill-rule="evenodd" clip-rule="evenodd" d="M162.86 2.2108C162.86 1.2711 163.631 0.500099 164.571 0.500099H177.183C178.123 0.500099 178.894 1.2711 178.894 2.2108V8.4028C178.894 9.3424 178.123 10.1134 177.183 10.1134H175.87C174.931 10.1134 173.497 10.4869 172.666 10.9447L168.088 13.4865C167.269 13.9443 166.92 13.619 167.305 12.7637L167.835 11.6072C168.221 10.7519 167.775 10.0532 166.835 10.0532H164.558C163.619 10.0532 162.848 9.2822 162.848 8.3426V2.2108" fill="#FD810B"/>
<path fill-rule="evenodd" clip-rule="evenodd" d="M162.871 18.3174C162.967 18.3174 163.052 18.3053 163.124 18.2692C163.184 18.2331 163.22 18.1728 163.22 18.0524C163.22 17.9921 163.208 17.9439 163.184 17.9198C163.16 17.8837 163.124 17.8596 163.088 17.8476C163.052 17.8355 163.003 17.8235 162.955 17.8114C162.907 17.8114 162.859 17.7994 162.823 17.7994H162.521V18.3174H162.871ZM162.871 17.438C163.136 17.438 163.341 17.4982 163.473 17.6066C163.606 17.715 163.678 17.8837 163.678 18.0885C163.678 18.2692 163.63 18.4017 163.533 18.4981C163.437 18.5945 163.317 18.6547 163.172 18.6667L163.69 19.5221H163.184L162.69 18.6788H162.521V19.5221H162.064V17.438H162.871ZM161.57 19.0161C161.642 19.1847 161.726 19.3293 161.847 19.4618C161.967 19.5823 162.112 19.6907 162.269 19.763C162.437 19.8353 162.618 19.8714 162.811 19.8714C163.003 19.8714 163.184 19.8353 163.353 19.763C163.521 19.6907 163.666 19.5943 163.774 19.4618C163.895 19.3414 163.991 19.1847 164.051 19.0161C164.124 18.8474 164.148 18.6667 164.148 18.486C164.148 18.2933 164.112 18.1246 164.051 17.956C163.979 17.7873 163.895 17.6428 163.774 17.5102C163.654 17.3898 163.509 17.2814 163.341 17.2091C163.172 17.1368 162.991 17.1007 162.799 17.1007C162.606 17.1007 162.425 17.1368 162.256 17.2091C162.088 17.2814 161.943 17.3777 161.823 17.5102C161.702 17.6307 161.606 17.7873 161.546 17.956C161.473 18.1246 161.449 18.3053 161.449 18.486C161.461 18.6788 161.498 18.8474 161.57 19.0161ZM161.028 17.7271C161.124 17.4862 161.269 17.2814 161.437 17.1127C161.606 16.932 161.811 16.7995 162.052 16.7031C162.281 16.6067 162.534 16.5465 162.811 16.5465C163.076 16.5465 163.329 16.5947 163.57 16.6911C163.798 16.7874 164.015 16.932 164.184 17.1007C164.365 17.2814 164.497 17.4862 164.594 17.715C164.69 17.9439 164.75 18.1969 164.75 18.474C164.75 18.7511 164.702 18.992 164.606 19.2329C164.509 19.4739 164.365 19.6666 164.196 19.8473C164.015 20.016 163.81 20.1605 163.582 20.2569C163.353 20.3533 163.1 20.4015 162.823 20.4015C162.558 20.4015 162.305 20.3533 162.064 20.2569C161.823 20.1605 161.618 20.028 161.449 19.8473C161.269 19.6787 161.136 19.4739 161.028 19.2329C160.931 19.004 160.871 18.7511 160.871 18.474C160.883 18.221 160.931 17.968 161.028 17.7271Z" fill="#2C284B"/>
<path fill-rule="evenodd" clip-rule="evenodd" d="M156.486 12.6914H153.704C153.499 12.6914 153.427 12.5589 153.427 12.4143L153.451 12.0529C153.499 11.3181 154.198 10.776 155.113 10.776C156.005 10.776 156.715 11.306 156.776 12.0288L156.8 12.3903C156.8 12.5589 156.739 12.6914 156.486 12.6914ZM155.005 7.8607C151.993 7.8607 149.849 10.0291 149.849 12.5107V15.7995C149.849 18.5582 151.897 20.4736 155.005 20.4736C156.691 20.4736 157.908 19.8833 158.775 19.0401C159.185 18.6305 159.51 18.1486 159.799 17.6667C159.956 17.4137 159.872 17.1246 159.727 17.0523L157.197 15.7754C157.041 15.7031 156.884 15.7513 156.812 15.9802C156.462 16.8716 155.872 17.2812 155.005 17.2812C154.065 17.2812 153.39 16.6428 153.39 15.8236V15.2574C153.39 15.0767 153.463 14.9803 153.692 14.9803H159.848C160.004 14.9803 160.1 14.908 160.1 14.7273V12.5107C160.113 10.0532 157.992 7.8607 155.005 7.8607Z" fill="#2C284B"/>
<path fill-rule="evenodd" clip-rule="evenodd" d="M143.983 11.0049C144.778 11.0049 145.356 11.5109 145.79 12.5348C145.862 12.7155 145.994 12.7637 146.175 12.6914L148.681 11.5711C148.838 11.4988 148.886 11.3422 148.813 11.1374C148.585 10.6073 148.332 10.1134 147.994 9.7038C147.151 8.5835 145.898 7.945 143.959 7.945C140.79 7.945 138.875 9.8605 138.875 12.6192V15.7272C138.875 18.4859 140.79 20.3773 143.959 20.3773C145.741 20.3773 146.922 19.8472 147.765 18.8955C148.199 18.4136 148.536 17.8234 148.813 17.1608C148.886 16.956 148.838 16.8235 148.681 16.7512L146.175 15.6067C145.994 15.5345 145.874 15.5827 145.79 15.7634C145.356 16.7873 144.766 17.3174 143.983 17.3174C143.043 17.3174 142.429 16.6548 142.429 15.8356V12.4866C142.417 11.6675 143.031 11.0049 143.983 11.0049Z" fill="#2C284B"/>
<path fill-rule="evenodd" clip-rule="evenodd" d="M136.62 8.222H133.584C133.403 8.222 133.331 8.2943 133.331 8.475V19.8351C133.331 20.0158 133.403 20.088 133.584 20.088H136.62C136.764 20.088 136.849 20.0158 136.849 19.8351V8.475C136.849 8.2943 136.74 8.222 136.62 8.222Z" fill="#2C284B"/>
<path fill-rule="evenodd" clip-rule="evenodd" d="M135.079 3.21049C134.091 3.21049 133.284 4.0177 133.284 5.0055C133.284 5.9933 134.091 6.8005 135.079 6.8005C136.067 6.8005 136.874 5.9933 136.874 5.0055C136.874 4.0177 136.079 3.21049 135.079 3.21049Z" fill="#2C284B"/>
<path fill-rule="evenodd" clip-rule="evenodd" d="M131.731 8.222H128.49C128.357 8.222 128.261 8.2943 128.213 8.4268L126.297 13.9202C126.201 14.1972 126.044 14.8598 125.996 15.1971H125.924C125.876 14.8598 125.743 14.2575 125.623 13.9202L123.635 8.4027C123.587 8.2702 123.515 8.222 123.382 8.222H120.142C119.913 8.222 119.84 8.3787 119.913 8.5834L124.478 19.9194C124.527 20.0399 124.623 20.1001 124.731 20.1001H127.105C127.237 20.1001 127.333 20.052 127.382 19.9194L131.971 8.5834C132.044 8.3787 131.971 8.222 131.731 8.222Z" fill="#2C284B"/>
<path fill-rule="evenodd" clip-rule="evenodd" d="M114.997 15.6791C114.997 16.5224 114.31 17.1608 113.419 17.1608C112.503 17.1608 111.864 16.5224 111.864 15.6791V12.6192C111.864 11.8 112.503 11.1857 113.419 11.1857C114.334 11.1857 114.997 11.8 114.997 12.6192V15.6791ZM118.261 4.0058H115.25C115.129 4.0058 114.997 4.0781 114.997 4.2588V7.8126C114.997 8.1981 115.069 8.9329 115.069 8.9329C114.563 8.4751 113.72 8.2222 113.105 8.2222C110.322 8.2222 108.311 10.0894 108.311 12.8722V15.4502C108.311 18.4137 110.045 20.1002 113.166 20.1002C113.876 20.1002 114.72 19.8714 115.262 19.4136C115.418 19.2811 115.599 19.3293 115.599 19.534V19.9195C115.599 20.0159 115.671 20.1002 115.804 20.1002H118.273C118.43 20.1002 118.526 20.028 118.526 19.8473V4.2588C118.514 4.0901 118.418 4.0058 118.261 4.0058Z" fill="#2C284B"/>
<path fill-rule="evenodd" clip-rule="evenodd" d="M101.674 14.6069H100.119C99.867 14.6069 99.758 14.4503 99.818 14.3057L100.348 12.2337C100.601 11.294 100.806 10.1616 100.854 9.4991H100.963C101.011 10.1616 101.168 11.282 101.421 12.2337L101.963 14.3057C102.011 14.4503 101.902 14.6069 101.674 14.6069ZM102.288 4.1864C102.24 4.0539 102.155 4.0057 102.035 4.0057H99.758C99.601 4.0057 99.553 4.0539 99.505 4.1864L94.482 19.7629C94.409 19.9677 94.506 20.1002 94.735 20.1002H97.951C98.084 20.1002 98.132 20.052 98.18 19.9195L98.915 17.5945C98.963 17.462 99.011 17.4379 99.192 17.4379H102.565C102.746 17.4379 102.794 17.462 102.842 17.5945L103.553 19.9195C103.601 20.04 103.661 20.1002 103.806 20.1002H107.046C107.299 20.1002 107.384 19.9677 107.299 19.7629L102.288 4.1864Z" fill="#2C284B"/>
<path fill-rule="evenodd" clip-rule="evenodd" d="M85.3145 12.6915H82.5317C82.3269 12.6915 82.2546 12.5589 82.2546 12.4144L82.2787 12.053C82.3269 11.3181 83.0256 10.776 83.9412 10.776C84.8326 10.776 85.5555 11.3061 85.6036 12.0289L85.6277 12.3903C85.6157 12.5589 85.5675 12.6915 85.3145 12.6915ZM83.8328 7.8607C80.8211 7.8607 78.6768 10.0291 78.6768 12.5108V15.7995C78.6768 18.5582 80.7127 20.4737 83.8328 20.4737C85.5193 20.4737 86.7481 19.8834 87.6154 19.0401C88.025 18.6305 88.3623 18.1486 88.6394 17.6668C88.796 17.4138 88.7117 17.1247 88.5671 17.0524L86.0373 15.7754C85.8807 15.7031 85.7361 15.7513 85.6518 15.9802C85.2904 16.8717 84.7122 17.2813 83.8448 17.2813C82.9052 17.2813 82.2305 16.6428 82.2305 15.8236V15.2574C82.2305 15.0767 82.3028 14.9803 82.5438 14.9803H88.6997C88.8563 14.9803 88.9526 14.9081 88.9526 14.7274V12.5108C88.9406 10.0532 86.8204 7.8607 83.8328 7.8607Z" fill="#2C284B"/>
<path fill-rule="evenodd" clip-rule="evenodd" d="M77.1451 8.2702C76.9644 8.2461 76.7596 8.222 76.4825 8.222C75.5187 8.222 74.5911 8.6798 74.1816 9.1857C74.049 9.3062 73.8442 9.2942 73.8442 9.0653V8.475C73.8442 8.2943 73.772 8.222 73.5913 8.222H71.1699C71.0133 8.222 70.9169 8.2943 70.9169 8.475V19.8351C70.9169 20.0158 71.0133 20.088 71.1699 20.088H74.1816C74.3382 20.088 74.4345 20.0158 74.4345 19.8351V13.0648C74.4345 12.1733 75.073 11.5348 75.9645 11.5348C76.35 11.5348 76.6752 11.583 76.9884 11.6674C77.2173 11.7155 77.3739 11.6433 77.3739 11.4144V8.5232C77.3739 8.4027 77.2896 8.2943 77.1451 8.2702Z" fill="#2C284B"/>
<path fill-rule="evenodd" clip-rule="evenodd" d="M63.6059 17.3295H62.6662C62.1241 17.3295 61.8229 16.9922 61.8229 16.2814C61.8229 15.7755 62.1843 15.4141 62.6903 15.4141H64.8587C65.0153 15.4141 65.0635 15.6911 65.0635 15.7755C65.0033 16.7151 64.2925 17.3295 63.6059 17.3295ZM63.5336 7.9451C61.9555 7.9451 60.7749 8.451 59.9075 9.2461C59.4256 9.6798 59.0402 10.1858 58.739 10.752C58.5824 11.0049 58.6667 11.2941 58.8113 11.3663L61.3411 12.6433C61.4977 12.7156 61.6422 12.6674 61.7266 12.4385C62.088 11.547 62.6662 11.1375 63.5336 11.1375C64.4732 11.1375 65.0635 11.7759 65.0635 12.5951V12.7276C65.0635 12.9083 64.9912 13.0047 64.8105 13.0047H62.5578C60.3171 13.0047 58.498 14.2335 58.498 16.3778V16.6308C58.498 18.7992 60.1364 20.1002 62.3289 20.1002H63.2204C63.907 20.1002 64.678 19.8713 65.2081 19.4377C65.3045 19.3654 65.437 19.3895 65.4611 19.4618L65.5333 19.8954C65.5574 20.028 65.6659 20.1002 65.8104 20.1002H68.3161C68.4728 20.1002 68.5691 20.028 68.5691 19.8473V12.6192C68.5812 9.8605 66.6416 7.9451 63.5336 7.9451Z" fill="#2C284B"/>
<path fill-rule="evenodd" clip-rule="evenodd" d="M57.4738 8.222H54.3898C54.2332 8.222 54.1368 8.2943 54.1127 8.4268L52.9683 13.2214C52.8358 13.7636 52.7394 14.5225 52.7153 15.0646H52.631C52.6069 14.5225 52.4985 13.8358 52.3539 13.2214L51.1974 8.4268C51.1733 8.2943 51.0649 8.222 50.9203 8.222H48.3905C48.2339 8.222 48.1616 8.2943 48.1375 8.4268L47.0172 13.1974C46.8847 13.7274 46.7883 14.4261 46.7401 14.9321H46.6678C46.6437 14.4261 46.5474 13.7274 46.4148 13.1974L45.2222 8.4268C45.1981 8.2943 45.1258 8.222 44.9692 8.222H41.8009C41.572 8.222 41.4877 8.3546 41.572 8.5594L45.174 19.9194C45.2222 20.0399 45.3065 20.1001 45.427 20.1001H47.6797C47.8364 20.1001 47.9086 20.052 47.9327 19.9194L49.3422 14.6309C49.4988 14.0406 49.6193 13.0528 49.6193 13.0528H49.6916C49.6916 13.0528 49.8241 14.0527 49.9686 14.6309L51.342 19.8833C51.3661 20.0158 51.4383 20.0881 51.5949 20.0881H53.8115C53.9441 20.0881 54.0163 20.0399 54.0645 19.9074L57.7147 8.5473C57.787 8.3787 57.7026 8.222 57.4738 8.222Z" fill="#2C284B"/>
<path fill-rule="evenodd" clip-rule="evenodd" d="M40.2587 8.222H38.548C38.3191 8.222 38.2469 8.1497 38.2469 7.969V6.3547C38.2469 6.174 38.1987 6.1259 38.018 6.1259H36.4037C36.3073 6.1259 36.1748 6.174 36.1025 6.2584L32.9102 9.4508V11.1855C32.9102 11.3662 32.9824 11.4144 33.1631 11.4144H34.4401C34.669 11.4144 34.7413 11.5228 34.7413 11.6915V15.6789C34.7413 18.7388 36.6567 20.329 39.0781 20.329H40.1503C40.3791 20.329 40.4876 20.2326 40.4876 20.0519V17.4257C40.4876 17.2691 40.4153 17.1727 40.2346 17.1727H39.8009C38.7528 17.1727 38.2469 16.5342 38.2469 15.438V11.6915C38.2469 11.5108 38.3191 11.4144 38.548 11.4144H40.2587C40.4394 11.4144 40.4876 11.3662 40.4876 11.1855V8.475C40.4876 8.2943 40.4394 8.222 40.2587 8.222Z" fill="#2C284B"/>
<path fill-rule="evenodd" clip-rule="evenodd" d="M32.6352 3.8852C32.2015 3.7888 31.4908 3.7045 30.8282 3.7045C27.0455 3.7045 25.624 6.3307 25.624 8.4027V9.0412C25.624 9.2219 25.5517 9.2942 25.3469 9.2942H24.7566C24.6 9.2942 24.5037 9.3664 24.5037 9.5471V12.2336C24.5037 12.4143 24.6 12.4866 24.7566 12.4866H25.3469C25.5758 12.4866 25.624 12.5588 25.624 12.7395V19.8351C25.624 20.0158 25.6963 20.0881 25.877 20.0881H28.8887C29.0694 20.0881 29.1417 20.0158 29.1417 19.8351V12.7395C29.1417 12.5588 29.2139 12.4866 29.4187 12.4866H31.0691C31.2498 12.4866 31.3221 12.4143 31.3221 12.2336V9.5471C31.3221 9.3664 31.2498 9.2942 31.0691 9.2942H29.4067C29.2019 9.2942 29.1296 9.2219 29.1296 9.0412V8.3545C29.1296 7.4631 29.7681 6.8969 30.7318 6.8969C31.0691 6.8969 31.4185 6.9451 31.6956 7.0294C31.8763 7.0776 31.9726 7.0294 32.0329 6.8728L32.828 4.2466C32.8882 4.0659 32.84 3.9334 32.6352 3.8852Z" fill="#2C284B"/>
<path fill-rule="evenodd" clip-rule="evenodd" d="M19.4308 15.8236C19.4308 16.6428 18.7682 17.3053 17.8768 17.3053C16.9371 17.3053 16.2625 16.6428 16.2625 15.8236V12.4866C16.2625 11.6916 16.9251 11.0049 17.8768 11.0049C18.7682 11.0049 19.4308 11.6675 19.4308 12.4866V15.8236ZM17.8768 7.945C14.7566 7.945 12.7207 9.8605 12.7207 12.6192V15.7272C12.7207 18.4859 14.7566 20.3773 17.8768 20.3773C20.9366 20.3773 22.9846 18.51 22.9846 15.7272V12.6192C22.9846 9.8243 20.9366 7.945 17.8768 7.945Z" fill="#2C284B"/>
<path fill-rule="evenodd" clip-rule="evenodd" d="M7.2398 10.4868C5.8303 9.9567 4.3244 9.5712 4.3244 8.4268C4.3244 7.5112 5.0111 6.8969 5.9026 6.8969H6.2881C7.1554 6.8969 7.7457 7.3065 8.1071 8.1979C8.1794 8.4268 8.336 8.475 8.4926 8.4027L11.0224 7.1258C11.179 7.0535 11.2513 6.7643 11.0947 6.5114C10.8899 6.1259 10.6369 5.7524 10.3237 5.4151C9.4323 4.4152 8.1553 3.7045 6.2881 3.7045H5.9026C2.7102 3.7045 0.74656 5.5958 0.74656 8.475C0.74656 11.4144 2.6379 12.5106 4.987 13.4503C6.517 14.0647 7.8421 14.3899 7.8421 15.6669C7.8421 16.715 7.0229 17.1727 6.1074 17.1727H5.4689C4.6015 17.1727 4.0112 16.7632 3.6619 15.8717C3.5896 15.6428 3.433 15.5946 3.2764 15.6669L0.74656 16.9439C0.58995 17.0161 0.51767 17.3053 0.67428 17.5582C0.90317 17.9678 1.1802 18.3774 1.5176 18.7388C2.3849 19.7026 3.6619 20.3651 5.4689 20.3651H6.2881C9.5286 20.3651 11.42 18.4979 11.42 15.6187C11.42 12.6432 9.6612 11.4385 7.2398 10.4868Z" fill="#2C284B"/>
</svg>
