<svg width="166" height="29" viewBox="0 0 166 29" fill="none" xmlns="http://www.w3.org/2000/svg">
<path d="M13.6846 0.789803C13.7943 0.844703 13.904 0.899502 13.9863 0.981802L18.7312 5.7267C18.9232 5.9187 19.0329 6.1656 19.0329 6.4399V28.327C19.0329 28.519 18.8958 28.6561 18.7038 28.6561C18.6215 28.6561 18.5392 28.6287 18.4844 28.5738L14.0137 24.1032C13.8217 23.9112 13.712 23.6643 13.712 23.3901V0.789803H13.6846Z" fill="url(#paint0_linear_13_6)"/>
<path d="M26.7399 1.0092C26.8222 0.926903 26.9319 0.844603 27.0416 0.789803V23.39C27.0416 23.6643 26.9319 23.9112 26.7399 24.1032L22.2693 28.5738C22.1321 28.711 21.9401 28.711 21.803 28.5738C21.7481 28.519 21.7207 28.4367 21.7207 28.3544V6.4673C21.7207 6.2204 21.8304 5.9462 22.0224 5.7816L26.7399 1.0092Z" fill="url(#paint1_linear_13_6)"/>
<path d="M35.3507 18.3977L35.0215 18.0685V13.4059H30.496C30.4137 13.4059 30.3315 13.4333 30.2492 13.5156L27.0127 16.752L37.3803 27.147C37.5723 27.339 37.8192 27.4213 38.0934 27.4213H43.5515C43.7435 27.4213 43.8806 27.2842 43.8806 27.0922C43.8806 27.0099 43.8532 26.9276 43.7983 26.8728L35.3507 18.3977Z" fill="url(#paint2_linear_13_6)"/>
<path d="M27.4245 0.707199C27.1502 0.707199 26.9034 0.8169 26.7114 1.0089L21.9664 5.7538C21.8841 5.8361 21.8293 5.9458 21.7744 6.0281H35.0219V18.0413L35.351 18.3704L40.0685 13.6803C40.2605 13.4884 40.3702 13.2415 40.3702 12.9672V6.4669C40.3702 6.1926 40.2605 5.9458 40.0685 5.7538L35.3236 1.0089C35.1316 0.8169 34.8847 0.707199 34.6105 0.707199H27.4245Z" fill="url(#paint3_linear_13_6)"/>
<path d="M13.9582 1.0089C13.7662 0.8169 13.5193 0.707199 13.2451 0.707199H0.792997C0.600997 0.707199 0.463898 0.844301 0.463898 1.0363C0.463898 1.1186 0.491299 1.2008 0.573599 1.2831L5.0443 5.7538C5.2362 5.9458 5.4831 6.0555 5.7574 6.0555H18.374C18.7306 6.0555 19.0323 6.3572 19.0323 6.7138V6.4669C19.0323 6.1926 18.9226 5.9458 18.7306 5.7538L13.9582 1.0089Z" fill="url(#paint4_linear_13_6)"/>
<path d="M26.7125 1.0089C26.9045 0.8169 27.1513 0.707199 27.4256 0.707199H34.6116C34.8859 0.707199 35.1327 0.8169 35.3247 1.0089L40.0697 5.7538C40.2617 5.9458 40.3714 6.1926 40.3714 6.4669V6.7138C40.3714 6.3572 40.0697 6.0555 39.7131 6.0555H22.379C22.0224 6.0555 21.7207 6.3572 21.7207 6.7138V6.4669C21.7207 6.1926 21.8304 5.9458 22.0224 5.7538L26.7125 1.0089Z" fill="url(#paint5_linear_13_6)"/>
<path d="M40.3687 12.7203C40.3687 13.0769 40.067 13.3786 39.7104 13.3786H30.7691C30.6868 13.3786 30.6045 13.4609 30.6045 13.5432C30.6045 13.598 30.6319 13.6255 30.6594 13.6529L35.3769 18.3704L40.0944 13.6803C40.2864 13.4883 40.3961 13.2415 40.3961 12.9672V12.7203H40.3687Z" fill="url(#paint6_linear_13_6)"/>
<path d="M165.026 18.5898C165.026 16.3407 163.737 15.4905 160.583 14.6951C158.691 14.2288 158.197 13.8448 158.197 13.1866C158.197 12.5283 158.8 12.0895 160.034 12.0895C161.406 12.1443 162.722 12.5009 163.929 13.1591L164.313 10.7455C162.969 10.1695 161.516 9.89531 160.034 9.89531C157.182 9.89531 155.509 11.3489 155.509 13.3786C155.509 15.5728 156.743 16.3956 159.705 17.1361C161.762 17.6298 162.338 17.9589 162.338 18.8366C162.338 19.632 161.543 20.1257 160.144 20.1257C158.553 20.0709 156.99 19.6046 155.619 18.7269L155.235 21.168C156.716 21.9085 158.361 22.2925 160.007 22.3199C163.298 22.3199 165.026 20.9211 165.026 18.5898ZM153.808 22.0731V10.0598H150.901V18.2058C149.941 19.1383 148.926 19.7417 147.912 19.7417C146.732 19.7417 146.238 19.0286 146.238 17.9589V10.0324H143.331V18.6995C143.331 20.9211 144.565 22.2651 146.924 22.2651C148.57 22.2651 149.914 21.4148 151.093 20.3451L151.505 22.0182L153.808 22.0731ZM141.576 22.0731V10.0598H138.696V22.0731H141.576ZM140.15 4.7938C141.082 4.7938 141.823 5.5343 141.823 6.4668C141.823 7.3994 141.082 8.1399 140.15 8.1399C139.217 8.1399 138.476 7.3994 138.476 6.4668C138.476 5.5343 139.217 4.7938 140.15 4.7938ZM134.088 18.0687C133.238 19.1109 132.305 19.7692 131.126 19.7692C129.672 19.7692 128.603 18.6446 128.603 16.2859C128.603 13.6528 129.864 12.3637 131.565 12.3637C132.442 12.3363 133.32 12.5283 134.088 12.8849V18.0687ZM136.968 22.0731V4.2178L134.088 4.7115V10.4987C133.156 10.197 132.168 10.0324 131.153 10.0324C128.246 10.0324 125.668 12.0072 125.668 16.4504C125.668 20.4548 127.78 22.3199 130.413 22.3199C132.168 22.3199 133.375 21.4422 134.28 20.4274L134.527 22.0731H136.968ZM121.581 18.7818C120.758 19.6046 119.661 20.0709 118.509 20.1257C117.522 20.1257 116.891 19.5772 116.891 18.7269C116.891 17.575 117.796 16.5601 121.609 16.1213V18.7818H121.581ZM124.461 22.0731V13.8997C124.461 11.0746 122.925 9.9227 119.744 9.9227C118.07 9.9227 116.397 10.2518 114.861 10.8827L115.218 13.1866C116.535 12.6106 117.961 12.2815 119.414 12.2266C120.786 12.2266 121.609 12.7203 121.609 14.0094V14.3934C116.507 14.8871 114.039 16.1213 114.039 19.0012C114.039 21.0583 115.465 22.2925 117.604 22.2925C119.195 22.2925 120.703 21.6342 121.801 20.5097L122.075 22.0456H124.461V22.0731ZM113.545 21.6342L108.937 15.3533C111.022 14.6951 112.393 13.2414 112.393 10.8827C112.393 7.81081 110.171 6.0554 106.496 6.0554H101.422V22.0731H104.412V15.8745H105.865L110.363 22.2102L113.545 21.6342ZM109.403 11.0472C109.403 12.7203 108.142 13.6254 106.112 13.6254H104.412V8.5239H106.277C108.334 8.5513 109.403 9.4564 109.403 11.0472ZM99.913 22.0731L99.557 19.6869C99.228 19.7417 98.871 19.7692 98.515 19.7692C97.335 19.7692 96.869 19.248 96.869 18.2606V12.3912H99.913L99.42 10.0598H96.869V5.8909L94.017 6.38461V10.0598H92.069V12.3912H94.017V18.7269C94.017 21.4148 95.607 22.2376 97.994 22.2376C98.652 22.2651 99.283 22.2102 99.913 22.0731ZM91.466 18.5898C91.466 16.3407 90.177 15.4905 87.023 14.6951C85.13 14.2288 84.636 13.8448 84.636 13.1866C84.636 12.5283 85.24 12.0895 86.474 12.0895C87.845 12.1443 89.162 12.5009 90.369 13.1591L90.78 10.7455C89.436 10.1695 87.983 9.89531 86.501 9.89531C83.649 9.89531 81.9759 11.3489 81.9759 13.3786C81.9759 15.5728 83.2101 16.3956 86.172 17.1361C88.229 17.6298 88.805 17.9589 88.805 18.8366C88.805 19.632 88.01 20.1257 86.611 20.1257C85.02 20.0709 83.4844 19.6046 82.1404 18.7269L81.729 21.168C83.2101 21.9085 84.856 22.2925 86.529 22.3199C89.738 22.3199 91.466 20.9211 91.466 18.5898ZM80.4125 22.0731V10.0598H77.5052V18.2058C76.5452 19.1383 75.5304 19.7417 74.5156 19.7417C73.3362 19.7417 72.8425 19.0286 72.8425 17.9589V10.0324H69.9352V18.6995C69.9352 20.9211 71.1695 22.2651 73.5282 22.2651C75.1739 22.2651 76.5178 21.4148 77.6972 20.3451L78.1086 22.0182L80.4125 22.0731ZM68.5638 12.7203L67.9056 9.89531C66.0679 10.2244 64.9708 11.1844 64.1206 12.5557L63.572 10.0598H61.4053V22.0731H64.2303V15.2162C65.1903 13.7625 66.8085 12.83 68.5638 12.7203Z" fill="url(#paint7_linear_13_6)"/>
<path d="M63.2191 8.71609L62.5609 6.05569H48.3809V8.71609H53.7292V22.0733H56.7188V8.71609H63.2191Z" fill="url(#paint8_linear_13_6)"/>
<defs>
<linearGradient id="paint0_linear_13_6" x1="16.3455" y1="28.7504" x2="16.3455" y2="0.721002" gradientUnits="userSpaceOnUse">
<stop offset="0.71" stop-color="#116BF2"/>
<stop offset="1" stop-color="#1E50E5"/>
</linearGradient>
<linearGradient id="paint1_linear_13_6" x1="24.3533" y1="28.7557" x2="24.3533" y2="0.728703" gradientUnits="userSpaceOnUse">
<stop offset="0.71" stop-color="#116BF2"/>
<stop offset="1" stop-color="#1E50E5"/>
</linearGradient>
<linearGradient id="paint2_linear_13_6" x1="29.944" y1="13.9748" x2="42.9576" y2="26.9885" gradientUnits="userSpaceOnUse">
<stop offset="0.41" stop-color="#116BF2"/>
<stop offset="1" stop-color="#185DEC"/>
</linearGradient>
<linearGradient id="paint3_linear_13_6" x1="31.0691" y1="18.3026" x2="31.0691" y2="0.523999" gradientUnits="userSpaceOnUse">
<stop offset="0.58" stop-color="#116BF2"/>
<stop offset="1" stop-color="#1E50E5"/>
</linearGradient>
<linearGradient id="paint4_linear_13_6" x1="13.1672" y1="0.379699" x2="7.8283" y2="5.7186" gradientUnits="userSpaceOnUse">
<stop offset="0.03" stop-color="#59C5FF"/>
<stop offset="0.99" stop-color="#21B1FF"/>
</linearGradient>
<linearGradient id="paint5_linear_13_6" x1="26.2077" y1="1.5628" x2="31.5466" y2="6.9018" gradientUnits="userSpaceOnUse">
<stop offset="0.04" stop-color="#59C5FF"/>
<stop offset="0.99" stop-color="#21B1FF"/>
</linearGradient>
<linearGradient id="paint6_linear_13_6" x1="38.1025" y1="15.7959" x2="34.0983" y2="11.7918" gradientUnits="userSpaceOnUse">
<stop offset="0.04" stop-color="#57C4FF"/>
<stop offset="0.99" stop-color="#21B1FF"/>
</linearGradient>
<linearGradient id="paint7_linear_13_6" x1="61.3887" y1="13.2623" x2="165.025" y2="13.2623" gradientUnits="userSpaceOnUse">
<stop offset="0.71" stop-color="#116BF2"/>
<stop offset="1" stop-color="#1E50E5"/>
</linearGradient>
<linearGradient id="paint8_linear_13_6" x1="48.3789" y1="14.0551" x2="63.2242" y2="14.0551" gradientUnits="userSpaceOnUse">
<stop offset="0.71" stop-color="#116BF2"/>
<stop offset="1" stop-color="#1E50E5"/>
</linearGradient>
</defs>
</svg>
